<svg width="24" height="24" viewBox="0 0 24 24" fill="none" xmlns="http://www.w3.org/2000/svg">
<path d="M5.7677 9.89258C5.52799 9.89258 5.31492 9.98703 5.15512 10.1624C4.982 10.3379 4.9021 10.5537 4.9021 10.8101C4.9021 11.0665 4.982 11.2689 5.15512 11.4578C5.32824 11.6332 5.52799 11.7277 5.7677 11.7277C6.0074 11.7277 6.22047 11.6332 6.39359 11.4578C6.56671 11.2824 6.65993 11.0665 6.65993 10.8101C6.65993 10.5537 6.56671 10.3379 6.39359 10.1624C6.22047 9.97354 6.02072 9.89258 5.7677 9.89258Z" fill="#BDBDBD"/>
<path d="M13.2384 9.87891C12.9987 9.87891 12.7856 9.97336 12.6258 10.1488C12.4527 10.3242 12.3728 10.5401 12.3728 10.7964C12.3728 11.0528 12.4527 11.2552 12.6258 11.4441C12.7989 11.6195 12.9987 11.714 13.2384 11.714C13.4781 11.714 13.6912 11.6195 13.8643 11.4441C14.0374 11.2687 14.1306 11.0528 14.1306 10.7964C14.1306 10.5401 14.0374 10.3377 13.8643 10.1488C13.7045 9.95987 13.4914 9.87891 13.2384 9.87891Z" fill="#BDBDBD"/>
<path d="M18.2323 9.89258C17.9926 9.89258 17.7795 9.98703 17.6197 10.1624C17.4466 10.3379 17.3667 10.5537 17.3667 10.8101C17.3667 11.0665 17.4466 11.2689 17.6197 11.4578C17.7928 11.6332 17.9926 11.7277 18.2323 11.7277C18.472 11.7277 18.6851 11.6332 18.8582 11.4578C19.0313 11.2824 19.1245 11.0665 19.1245 10.8101C19.1245 10.5537 19.0313 10.3379 18.8582 10.1624C18.6851 9.97354 18.472 9.89258 18.2323 9.89258Z" fill="#BDBDBD"/>
<path d="M20.4429 3.22656H3.55704C2.2653 3.22656 1.19995 4.30602 1.19995 5.61487V15.2895C1.19995 16.5984 2.2653 17.6778 3.55704 17.6778H10.1889C10.1889 17.6778 11.4673 21.2266 11.9334 21.2266C12.3995 21.2266 13.7844 17.6778 13.7844 17.6778H20.4429C21.7346 17.6778 22.8 16.5984 22.8 15.2895V5.61487C22.8 4.30602 21.7346 3.22656 20.4429 3.22656ZM7.47221 12.1591C7.13929 12.5369 6.61993 12.6988 6.06062 12.6988C5.55457 12.6988 5.1817 12.5504 4.91536 12.3345H4.90205V12.6044H3.63694V7.00467H4.90205V9.1501H4.92868C5.27492 8.85325 5.72769 8.7588 6.26037 8.73181C6.71315 8.71832 7.19255 9.00167 7.48553 9.33901C7.76518 9.67634 7.97825 10.2026 7.97825 10.7828C7.97825 11.417 7.81845 11.7813 7.47221 12.1591ZM10.2022 12.6583H8.91043C8.91043 12.6583 8.91043 9.71682 8.91043 9.19058C8.91043 8.39448 8.28454 8.28653 8.28454 8.28653V6.89673C8.28454 6.89673 10.0956 7.00467 10.2022 9.23106C10.2022 9.86524 10.2022 12.6583 10.2022 12.6583ZM15.2759 11.5924C15.1694 11.8488 15.0096 12.0646 14.7965 12.267C14.5967 12.4559 14.357 12.6044 14.0907 12.7123C13.8244 12.8203 13.5447 12.8742 13.2517 12.8742C12.9588 12.8742 12.6791 12.8203 12.4261 12.7123C12.1598 12.6044 11.9201 12.4559 11.7203 12.267C11.5072 12.0646 11.3474 11.8353 11.2409 11.5924C11.1344 11.3495 11.0811 11.0796 11.0811 10.7963C11.0811 10.5129 11.1344 10.2565 11.2409 10.0002C11.3474 9.7573 11.5072 9.52791 11.7203 9.32551C11.9334 9.13661 12.1598 8.98818 12.4261 8.88024C12.6924 8.77229 12.9721 8.71832 13.2517 8.71832C13.5447 8.71832 13.8244 8.77229 14.0907 8.88024C14.357 8.98818 14.5967 9.13661 14.7965 9.32551C15.0096 9.52791 15.1561 9.7438 15.2759 10.0002C15.3824 10.2565 15.4357 10.5129 15.4357 10.7963C15.4357 11.0796 15.3824 11.336 15.2759 11.5924ZM20.363 12.1456C20.363 13.1306 20.1765 13.7243 19.7504 14.1426C19.231 14.6419 18.4986 14.6688 17.886 14.5879V13.5759C18.4054 13.6299 19.1112 13.279 19.1112 12.6044V12.348H19.0979C18.8049 12.7528 18.3921 12.9012 17.8194 12.9012C17.3001 12.9012 16.8473 12.7123 16.541 12.348C16.2347 11.9837 16.0882 11.4979 16.0882 10.8907C16.0882 10.2026 16.2614 9.66284 16.5943 9.25805C16.9405 8.85325 17.4199 8.66434 17.9792 8.66434C18.472 8.66434 18.7916 8.78578 19.0979 9.06914H19.1112V8.7588H20.3763V12.1456H20.363Z" fill="#BDBDBD"/>
</svg>
