<svg width="33" height="32" viewBox="0 0 33 32" fill="none" xmlns="http://www.w3.org/2000/svg">
<path fill-rule="evenodd" clip-rule="evenodd" d="M23.572 8.50713C23.624 8.59803 23.715 8.66296 23.832 8.66296C26.952 8.66296 29.5 11.2081 29.5 14.3247V22.0381C29.5 25.1546 26.952 27.6998 23.832 27.6998H9.168C6.035 27.6998 3.5 25.1546 3.5 22.0381V14.3247C3.5 11.2081 6.035 8.66296 9.168 8.66296C9.272 8.66296 9.376 8.61101 9.415 8.50713L9.493 8.3513C9.53781 8.25699 9.5838 8.16011 9.63049 8.06177C9.96307 7.36126 10.331 6.58625 10.559 6.13077C11.157 4.96207 12.171 4.31279 13.432 4.2998H19.555C20.816 4.31279 21.843 4.96207 22.441 6.13077C22.6458 6.53984 22.9577 7.19879 23.2584 7.83389C23.3204 7.96489 23.382 8.09488 23.442 8.22145L23.572 8.50713ZM22.6229 13.4931C22.6229 14.1424 23.143 14.6618 23.7929 14.6618C24.4429 14.6618 24.976 14.1424 24.976 13.4931C24.976 12.8438 24.4429 12.3114 23.7929 12.3114C23.143 12.3114 22.6229 12.8438 22.6229 13.4931ZM14.2509 15.5061C14.8619 14.8958 15.6549 14.5712 16.4999 14.5712C17.3449 14.5712 18.1379 14.8958 18.7359 15.4931C19.3339 16.0905 19.6589 16.8826 19.6589 17.7267C19.6459 19.4667 18.2419 20.8821 16.4999 20.8821C15.6549 20.8821 14.8619 20.5575 14.2639 19.9602C13.6659 19.3628 13.3409 18.5707 13.3409 17.7267V17.7137C13.3279 16.8956 13.6529 16.1035 14.2509 15.5061ZM20.1008 21.3362C19.1778 22.2581 17.9038 22.8295 16.4998 22.8295C15.1348 22.8295 13.8608 22.2971 12.8858 21.3362C11.9238 20.3623 11.3908 19.0897 11.3908 17.7262C11.3778 16.3757 11.9108 15.1031 12.8728 14.1292C13.8478 13.1553 15.1348 12.6229 16.4998 12.6229C17.8648 12.6229 19.1518 13.1553 20.1138 14.1162C21.0758 15.0901 21.6088 16.3757 21.6088 17.7262C21.5958 19.1416 21.0238 20.4142 20.1008 21.3362Z" fill="#FAFAFA"/>
</svg>
