<svg width="16" height="14" viewBox="0 0 16 14" fill="none" xmlns="http://www.w3.org/2000/svg">
<path d="M7.99425 0C3.56889 0 0 2.70269 0 5.98378C0 8.11355 1.48466 9.97844 3.71164 11.0432L2.95789 13.7082C2.94368 13.7481 2.9415 13.791 2.95159 13.832C2.96167 13.873 2.98362 13.9107 3.015 13.9406C3.06074 13.9787 3.1196 13.9999 3.1806 14C3.23116 13.9962 3.27914 13.9772 3.31763 13.946L6.56104 11.8758C7.03981 11.9383 7.52242 11.9707 8.00577 11.973C12.4255 11.973 16 9.27032 16 5.98378C16 2.69729 12.414 0 7.99425 0Z" fill="#392020"/>
</svg>
